<?xml version="1.0" encoding="UTF-8"?>
<svg version="1.1" xmlns="http://www.w3.org/2000/svg" width="512" height="512">
<path d="M0 0 C4.74398354 2.80933563 8.45783872 6.17693938 12.30221558 10.06170654 C12.90762432 10.66540644 13.51303307 11.26910634 14.13678753 11.89110017 C16.15440017 13.90543124 18.16480364 15.92680326 20.17529297 17.94824219 C21.6240057 19.39751932 23.07315949 20.84635569 24.52272034 22.29478455 C28.45028421 26.22177503 32.37165473 30.15489767 36.29194021 34.08915234 C40.39230895 38.20203075 44.49834906 42.30923923 48.60379028 46.41705322 C56.37432832 54.19380532 64.13975438 61.97564124 71.90335572 69.75931764 C80.74339034 78.62171353 89.5891104 87.47842533 98.43531203 96.33466482 C116.62987353 114.55012664 134.81728541 132.7727131 153 151 C157.16843375 149.36374273 159.95090486 146.31591155 163.03479004 143.19226074 C163.63566767 142.59168083 164.23654531 141.99110091 164.85563135 141.37232161 C166.87012333 139.35643944 168.87737452 137.33349826 170.88476562 135.31054688 C172.32667859 133.86479609 173.76904721 132.41949962 175.21183777 130.97462463 C178.31891692 127.8612198 181.42286049 124.74473355 184.52445984 121.62586975 C189.42673956 116.69658008 194.33660735 111.7748966 199.24768066 106.85437012 C209.67103335 96.40880223 220.08593685 85.95482819 230.5 75.5 C241.74196138 64.21403284 252.98533194 52.92949258 264.23848295 41.65468073 C269.12246114 36.76072254 274.00151707 31.8619245 278.87689972 26.95940399 C281.90805082 23.91335852 284.9433178 20.87144036 287.97973061 17.83064079 C289.38920095 16.41741898 290.7969376 15.00246568 292.20282555 13.58568001 C294.11904647 11.65507248 296.04130799 9.73068799 297.96520996 7.80773926 C298.52279952 7.24295978 299.08038907 6.6781803 299.65487528 6.0962863 C304.34901473 1.42707702 307.26385158 -0.2908887 313.875 -0.375 C319.08266907 -0.27363418 322.10580633 0.30051602 326 4 C330.41415841 8.64648254 330.46758261 12.88793066 330.53125 19 C329.39291545 25.42824219 324.41394268 29.87310013 319.93829346 34.30221558 C319.33459356 34.90762432 318.73089366 35.51303307 318.10889983 36.13678753 C316.09456876 38.15440017 314.07319674 40.16480364 312.05175781 42.17529297 C310.60248068 43.6240057 309.15364431 45.07315949 307.70521545 46.52272034 C303.77822497 50.45028421 299.84510233 54.37165473 295.91084766 58.29194021 C291.79796925 62.39230895 287.69076077 66.49834906 283.58294678 70.60379028 C275.80619468 78.37432832 268.02435876 86.13975438 260.24068236 93.90335572 C251.37828647 102.74339034 242.52157467 111.5891104 233.66533518 120.43531203 C215.44987336 138.62987353 197.2272869 156.81728541 179 175 C180.63625727 179.16843375 183.68408845 181.95090486 186.80773926 185.03479004 C187.40831917 185.63566767 188.00889909 186.23654531 188.62767839 186.85563135 C190.64356056 188.87012333 192.66650174 190.87737452 194.68945312 192.88476562 C196.13520391 194.32667859 197.58050038 195.76904721 199.02537537 197.21183777 C202.1387802 200.31891692 205.25526645 203.42286049 208.37413025 206.52445984 C213.30341992 211.42673956 218.2251034 216.33660735 223.14562988 221.24768066 C233.59119777 231.67103335 244.04517181 242.08593685 254.5 252.5 C265.78596716 263.74196138 277.07050742 274.98533194 288.34531927 286.23848295 C293.23927746 291.12246114 298.1380755 296.00151707 303.04059601 300.87689972 C306.08664148 303.90805082 309.12855964 306.9433178 312.16935921 309.97973061 C313.58258102 311.38920095 314.99753432 312.7969376 316.41431999 314.20282555 C318.34492752 316.11904647 320.26931201 318.04130799 322.19226074 319.96520996 C322.75704022 320.52279952 323.3218197 321.08038907 323.9037137 321.65487528 C328.57292298 326.34901473 330.2908887 329.26385158 330.375 335.875 C330.27363418 341.08266907 329.69948398 344.10580633 326 348 C321.35351746 352.41415841 317.11206934 352.46758261 311 352.53125 C304.57175781 351.39291545 300.12689987 346.41394268 295.69778442 341.93829346 C295.09237568 341.33459356 294.48696693 340.73089366 293.86321247 340.10889983 C291.84559983 338.09456876 289.83519636 336.07319674 287.82470703 334.05175781 C286.3759943 332.60248068 284.92684051 331.15364431 283.47727966 329.70521545 C279.54971579 325.77822497 275.62834527 321.84510233 271.70805979 317.91084766 C267.60769105 313.79796925 263.50165094 309.69076077 259.39620972 305.58294678 C251.62567168 297.80619468 243.86024562 290.02435876 236.09664428 282.24068236 C227.25660966 273.37828647 218.4108896 264.52157467 209.56468797 255.66533518 C191.37012647 237.44987336 173.18271459 219.2272869 155 201 C150.83156625 202.63625727 148.04909514 205.68408845 144.96520996 208.80773926 C144.36433233 209.40831917 143.76345469 210.00889909 143.14436865 210.62767839 C141.12987667 212.64356056 139.12262548 214.66650174 137.11523438 216.68945312 C135.67332141 218.13520391 134.23095279 219.58050038 132.78816223 221.02537537 C129.68108308 224.1387802 126.57713951 227.25526645 123.47554016 230.37413025 C118.57326044 235.30341992 113.66339265 240.2251034 108.75231934 245.14562988 C98.32896665 255.59119777 87.91406315 266.04517181 77.5 276.5 C66.25803862 287.78596716 55.01466806 299.07050742 43.76151705 310.34531927 C38.87753886 315.23927746 33.99848293 320.1380755 29.12310028 325.04059601 C26.09194918 328.08664148 23.0566822 331.12855964 20.02026939 334.16935921 C18.61079905 335.58258102 17.2030624 336.99753432 15.79717445 338.41431999 C13.88095353 340.34492752 11.95869201 342.26931201 10.03479004 344.19226074 C9.47720048 344.75704022 8.91961093 345.3218197 8.34512472 345.9037137 C3.65098527 350.57292298 0.73614842 352.2908887 -5.875 352.375 C-11.08266907 352.27363418 -14.10580633 351.69948398 -18 348 C-22.41415841 343.35351746 -22.46758261 339.11206934 -22.53125 333 C-21.39291545 326.57175781 -16.41394268 322.12689987 -11.93829346 317.69778442 C-11.33459356 317.09237568 -10.73089366 316.48696693 -10.10889983 315.86321247 C-8.09456876 313.84559983 -6.07319674 311.83519636 -4.05175781 309.82470703 C-2.60248068 308.3759943 -1.15364431 306.92684051 0.29478455 305.47727966 C4.22177503 301.54971579 8.15489767 297.62834527 12.08915234 293.70805979 C16.20203075 289.60769105 20.30923923 285.50165094 24.41705322 281.39620972 C32.19380532 273.62567168 39.97564124 265.86024562 47.75931764 258.09664428 C56.62171353 249.25660966 65.47842533 240.4108896 74.33466482 231.56468797 C92.55012664 213.37012647 110.7727131 195.18271459 129 177 C127.36374273 172.83156625 124.31591155 170.04909514 121.19226074 166.96520996 C120.59168083 166.36433233 119.99110091 165.76345469 119.37232161 165.14436865 C117.35643944 163.12987667 115.33349826 161.12262548 113.31054688 159.11523438 C111.86479609 157.67332141 110.41949962 156.23095279 108.97462463 154.78816223 C105.8612198 151.68108308 102.74473355 148.57713951 99.62586975 145.47554016 C94.69658008 140.57326044 89.7748966 135.66339265 84.85437012 130.75231934 C74.40880223 120.32896665 63.95482819 109.91406315 53.5 99.5 C42.21403284 88.25803862 30.92949258 77.01466806 19.65468073 65.76151705 C14.76072254 60.87753886 9.8619245 55.99848293 4.95940399 51.12310028 C1.91335852 48.09194918 -1.12855964 45.0566822 -4.16935921 42.02026939 C-5.58258102 40.61079905 -6.99753432 39.2030624 -8.41431999 37.79717445 C-10.34492752 35.88095353 -12.26931201 33.95869201 -14.19226074 32.03479004 C-14.75704022 31.47720048 -15.3218197 30.91961093 -15.9037137 30.34512472 C-20.57292298 25.65098527 -22.2908887 22.73614842 -22.375 16.125 C-22.27363418 10.91733093 -21.69948398 7.89419367 -18 4 C-12.87322962 -0.87043186 -6.74482111 -1.1943954 0 0 Z " fill="#000000" transform="translate(102,80)"/>
</svg>
