<?xml version="1.0" standalone="no"?>
<!DOCTYPE svg PUBLIC "-//W3C//DTD SVG 20010904//EN"
 "http://www.w3.org/TR/2001/REC-SVG-20010904/DTD/svg10.dtd">
<svg version="1.0" xmlns="http://www.w3.org/2000/svg"
 width="512.000000pt" height="512.000000pt" viewBox="0 0 512.000000 512.000000"
 preserveAspectRatio="xMidYMid meet">

<g transform="translate(0.000000,512.000000) scale(0.100000,-0.100000)"
fill="#000000" stroke="none">
<path d="M340 4576 c-30 -6 -77 -22 -105 -36 -60 -29 -154 -120 -184 -178 -53
-104 -51 -27 -51 -1782 0 -1428 2 -1633 15 -1685 48 -184 201 -325 385 -354
43 -7 674 -11 1875 -11 1976 0 1885 -2 2005 57 71 35 167 133 202 204 15 31
165 528 333 1105 285 975 306 1053 302 1110 -11 145 -114 264 -255 293 -29 6
-127 11 -217 11 l-163 0 -4 208 c-3 183 -6 213 -25 260 -32 79 -97 158 -166
203 -112 72 -64 69 -1017 69 -739 0 -863 2 -908 15 -57 17 -82 42 -254 255
-140 171 -234 234 -390 260 -93 15 -1307 12 -1378 -4z m1401 -221 c77 -27 113
-60 236 -212 141 -174 179 -212 245 -248 102 -56 83 -55 1014 -55 l862 0 53
-28 c39 -20 62 -41 84 -77 l30 -48 3 -189 4 -188 -1264 0 c-1375 0 -1335 1
-1454 -57 -76 -37 -164 -123 -202 -198 -18 -37 -146 -460 -330 -1090 -165
-566 -306 -1043 -312 -1059 -19 -51 -69 -104 -122 -130 -131 -65 -294 -4 -357
133 -15 33 -16 183 -16 1671 l0 1635 22 40 c26 49 57 79 103 99 53 23 1336 24
1401 1z m3122 -1285 c14 -11 30 -35 36 -53 10 -30 -17 -132 -293 -1077 -241
-826 -310 -1052 -333 -1084 -16 -22 -51 -54 -78 -71 l-48 -30 -1639 -3 -1638
-2 24 47 c13 27 160 514 325 1083 166 569 311 1054 322 1077 23 49 66 88 124
114 38 18 112 19 1606 19 1555 0 1566 0 1592 -20z"/>
</g>
</svg>
