<?xml version="1.0" standalone="no"?>
<!DOCTYPE svg PUBLIC "-//W3C//DTD SVG 20010904//EN"
 "http://www.w3.org/TR/2001/REC-SVG-20010904/DTD/svg10.dtd">
<svg version="1.0" xmlns="http://www.w3.org/2000/svg"
 width="512.000000pt" height="512.000000pt" viewBox="0 0 512.000000 512.000000"
 preserveAspectRatio="xMidYMid meet">

<g transform="translate(0.000000,512.000000) scale(0.100000,-0.100000)"
fill="#000000" stroke="none">
<path d="M2337 4675 c-455 -86 -751 -419 -862 -970 -33 -163 -45 -288 -45
-454 l0 -140 -57 -5 c-159 -17 -255 -59 -354 -156 -70 -69 -114 -143 -146
-246 -17 -55 -18 -114 -18 -939 0 -826 1 -884 18 -940 59 -190 202 -332 383
-379 55 -14 203 -16 1306 -16 1085 0 1251 2 1303 15 179 47 324 191 382 380
17 56 18 114 18 940 0 880 0 880 -22 950 -31 97 -82 180 -153 246 -94 88 -191
129 -342 145 l-58 5 0 137 c0 238 -37 481 -104 679 -107 316 -284 536 -531
658 -146 73 -257 97 -465 101 -125 2 -197 -1 -253 -11z m442 -306 c319 -73
518 -343 596 -809 9 -52 19 -175 22 -272 l6 -178 -841 0 -842 0 0 114 c0 447
126 822 337 1006 54 47 203 122 278 140 131 32 301 32 444 -1z m1057 -1586
c48 -25 101 -83 120 -129 12 -28 14 -185 14 -886 l0 -853 -24 -50 c-25 -54
-70 -98 -126 -124 -31 -14 -159 -16 -1260 -16 -1101 0 -1229 2 -1260 16 -56
26 -101 70 -126 124 l-24 50 0 853 c0 701 2 858 14 886 27 66 94 125 166 147
14 4 574 7 1245 6 l1220 -2 41 -22z"/>
</g>
</svg>
