<?xml version="1.0" encoding="UTF-8"?>
<svg version="1.1" xmlns="http://www.w3.org/2000/svg" width="512" height="512">
<path d="M0 0 C1.1083714 0.94427854 2.21591642 1.88952711 3.32312012 2.83517456 C3.93997429 3.36145384 4.55682846 3.88773312 5.19237518 4.42996025 C9.2876264 7.98695235 13.12517502 11.82159566 16.98242188 15.63232422 C18.00322465 16.63637637 19.02938622 17.63500631 20.06054688 18.62841797 C21.56295013 20.076352 23.04849524 21.53979691 24.53125 23.0078125 C25.41361328 23.87035645 26.29597656 24.73290039 27.20507812 25.62158203 C29 28 29 28 28.85681593 29.88147008 C27.73930923 32.6445739 26.19859842 34.17009211 24.08586693 36.27489662 C23.23824425 37.12664235 22.39062157 37.97838807 21.51731336 38.85594428 C20.56622747 39.79639778 19.61500673 40.73671492 18.66366577 41.6769104 C17.66069492 42.6790415 16.65838751 43.68183697 15.65668929 44.68524015 C12.89716857 47.4456494 10.12838304 50.19660116 7.35805821 52.94616151 C4.37359381 55.9115359 1.39780241 58.88559029 -1.57897949 61.8586731 C-6.74116315 67.01218713 -11.90864724 72.16033654 -17.0795784 77.30507278 C-24.56505187 84.75290616 -32.04081725 92.21042376 -39.51394658 99.67064087 C-51.65037533 111.78585287 -63.79238702 123.89545201 -75.93896484 136.00048828 C-76.66627317 136.72531318 -77.3935815 137.45013807 -78.14292948 138.19692735 C-84.0410544 144.07482833 -89.93944953 149.95245812 -95.83787155 155.83006096 C-100.98497341 160.95901243 -106.13197235 166.08806715 -111.27880859 171.21728516 C-112.00341497 171.93940715 -112.72802134 172.66152915 -113.47458549 173.40553363 C-125.56773693 185.45758877 -137.65496998 197.51556281 -149.73800981 209.57775533 C-157.18924528 217.01556289 -164.6457659 224.44799557 -172.10922579 231.87353687 C-177.22791255 236.96689321 -182.34123945 242.0655888 -187.45043261 247.16846807 C-190.3962533 250.1102644 -193.34448138 253.04953723 -196.2994194 255.98217773 C-199.00912121 258.67151055 -201.71168554 261.36781379 -204.4089518 264.06961696 C-205.83920409 265.49867994 -207.27686657 266.92031494 -208.71485293 268.34159529 C-228.2471468 287.9671771 -238.65774006 313.140956 -239.3125 340.75 C-239.14844998 368.28361969 -227.98669428 393.20704229 -209.25 413.1875 C-188.75948069 432.5781306 -162.43543298 441.68564962 -134.4765625 441.27734375 C-112.21459196 440.48142485 -89.83292034 432.14522015 -73.42041397 416.97873402 C-72.62859382 416.2493983 -72.62859382 416.2493983 -71.82077731 415.50532852 C-66.54729107 410.62249447 -61.43258462 405.58661346 -56.34759521 400.50822449 C-55.33668339 399.50206174 -54.32556995 398.49610153 -53.31427598 397.49032289 C-50.57265807 394.76241347 -47.83403583 392.0315149 -45.09599543 389.30001533 C-42.7383768 386.94883031 -40.37895025 384.5994636 -38.01951811 382.25009867 C-30.26093918 374.52459545 -22.50804012 366.79340606 -14.75678003 359.06056044 C-12.73697684 357.0455644 -10.71708652 355.03065576 -8.69717884 353.01576447 C3.87562772 340.47391162 16.44628381 327.92990584 29.01202774 315.38097668 C31.91261109 312.48434198 34.81322167 309.58773455 37.71386719 306.69116211 C38.79510544 305.6114364 38.79510544 305.6114364 39.89818689 304.50989804 C51.58680907 292.83829934 63.28743856 281.17881354 74.99292329 269.524129 C87.03694085 257.53194877 99.06954447 245.52840896 111.091295 233.5139063 C117.83098228 226.77887019 124.57557598 220.04891431 131.33313751 213.33180809 C137.08390898 207.61542667 142.82428883 201.88885897 148.55157641 196.14894506 C151.46962262 193.22509559 154.39219183 190.30620301 157.3282547 187.4004364 C160.02323674 184.7330362 162.70361826 182.05177318 165.37371299 179.35946766 C166.7848394 177.94365174 168.21059178 176.5424581 169.63705468 175.14209527 C181.9311392 162.66809848 188.60387516 148.11277523 189.3125 130.5625 C189.14439283 113.81482282 182.36734495 99.02175029 171.04296875 86.90625 C159.1555078 75.43782756 143.5552611 70.46390818 127.28466797 70.65039062 C98.12916093 71.61723244 80.69783692 94.14744581 61.61450112 113.22545612 C58.72271914 116.11536742 55.82809771 119.00243257 52.93389893 121.8899231 C46.6281456 128.18218287 40.32609155 134.47813871 34.02487254 140.77493882 C30.08749635 144.70954159 26.14938803 148.64341102 22.21115303 152.57715416 C11.29465233 163.48148206 0.37908427 174.38674165 -10.5330286 185.2954607 C-11.22917633 185.99138887 -11.92532407 186.68731703 -12.64256718 187.40433393 C-13.34028628 188.10183475 -14.03800537 188.79933556 -14.75686747 189.51797277 C-16.17051101 190.93117285 -17.5841561 192.34437138 -18.99780273 193.75756836 C-19.69900549 194.45854968 -20.40020824 195.159531 -21.12265956 195.88175418 C-32.51166068 207.26679817 -43.90741269 218.64505945 -55.30604941 230.02045552 C-67.02464926 241.71535547 -78.73762869 253.41585983 -90.44496816 265.12203234 C-97.01236244 271.68850997 -103.58215331 278.25254934 -110.15815926 284.81040382 C-115.7497258 290.38658898 -121.33614987 295.96786203 -126.91589475 301.55587742 C-129.76212191 304.4060158 -132.61072867 307.25366453 -135.46590996 310.09483528 C-138.07931856 312.69553615 -140.68570736 315.30306371 -143.28668206 317.9161981 C-144.67466677 319.30707435 -146.07004525 320.69056008 -147.46567303 322.07376701 C-153.13266614 327.78607367 -157.28481666 332.57569618 -158.06640625 340.91796875 C-157.88318845 346.66238555 -155.11932239 352.09748405 -151 356 C-145.52930471 359.52007853 -140.87836926 360.43153505 -134.45703125 359.75 C-127.64588054 357.67092061 -122.86387929 352.1433106 -117.9894104 347.22991943 C-117.2002418 346.44245968 -116.4110732 345.65499993 -115.59799039 344.84367776 C-112.95850153 342.2074795 -110.32621809 339.56420339 -107.69384766 336.92089844 C-105.80178923 335.02827581 -103.9093382 333.13605357 -102.01638794 331.24432373 C-97.94364985 327.17263289 -93.87458136 323.09730456 -89.80800247 319.01946259 C-83.92845318 313.12363952 -78.04337033 307.23336551 -72.15693466 301.34441879 C-62.60607601 291.78918599 -53.0596896 282.22949805 -43.51611328 272.66699219 C-34.24697642 263.37948929 -24.97573535 254.09409526 -15.70166016 244.81152344 C-15.12973335 244.23907118 -14.55780654 243.66661892 -13.96854861 243.07681963 C-11.09926518 240.20492607 -8.22994037 237.33307386 -5.36059499 234.4612422 C18.43268885 210.64723457 42.21871526 186.82599022 66 163 C70.08135573 164.88355536 72.94885227 167.60854512 76.11328125 170.7421875 C76.6870903 171.30696808 77.26089935 171.87174866 77.85209656 172.4536438 C79.05913623 173.64621023 80.26341323 174.84157854 81.46508789 176.03955078 C83.31144566 177.87395249 85.1756365 179.6888764 87.04101562 181.50390625 C88.21208154 182.66551445 89.38204281 183.82823757 90.55078125 184.9921875 C91.11211258 185.53398651 91.67344391 186.07578552 92.25178528 186.63400269 C93.7902832 188.19091797 93.7902832 188.19091797 96 191 C95.70670271 194.41297772 94.26753248 196.10915053 91.90190601 198.48120403 C90.9034271 199.49326791 90.9034271 199.49326791 89.88477689 200.52577752 C89.14628639 201.2589401 88.40779588 201.99210267 87.64692688 202.7474823 C86.86782477 203.53267551 86.08872266 204.31786873 85.2860114 205.12685567 C82.66176445 207.76781032 80.02685106 210.39785874 77.3918457 213.02807617 C75.51234612 214.91491201 73.63343349 216.80231657 71.75518799 218.69039917 C67.17243224 223.29423473 62.58142476 227.88975549 57.98722795 232.48217132 C54.24888499 236.21920664 50.51310784 239.9587881 46.77913475 243.70018959 C45.70340261 244.77802099 44.62766964 245.85585156 43.55193585 246.93368131 C43.01646294 247.47019775 42.48099003 248.00671418 41.92929067 248.55948869 C31.79343937 258.71425646 21.64761434 268.8590144 11.49889287 279.00091717 C2.23424528 288.26000215 -7.01717395 297.53217663 -16.26244011 306.81061061 C-25.7654574 316.34745353 -35.27782047 325.87488436 -44.80007106 335.39252454 C-50.14168432 340.73190026 -55.47955025 346.07489534 -60.80753136 351.42787743 C-65.34919248 355.99066777 -69.89963785 360.54447595 -74.46126362 365.0873101 C-76.78423227 367.40118757 -79.10175981 369.72006616 -81.41112709 372.04752922 C-94.11690323 384.84591345 -105.98170091 396.488712 -124 401 C-125.10794922 401.28617187 -125.10794922 401.28617187 -126.23828125 401.578125 C-143.5624817 404.22453752 -159.07554317 400.95813284 -174 392 C-177.61834874 389.24362667 -180.83099072 386.25736455 -184 383 C-184.54914063 382.48308594 -185.09828125 381.96617187 -185.6640625 381.43359375 C-189.44760148 377.55900704 -191.80083361 372.90280077 -194.25 368.125 C-194.5917627 367.46491943 -194.93352539 366.80483887 -195.28564453 366.12475586 C-201.500141 353.49294801 -202.6242075 335.9982387 -198.08984375 322.625 C-197.73019531 321.75875 -197.37054688 320.8925 -197 320 C-196.54753906 318.906875 -196.09507812 317.81375 -195.62890625 316.6875 C-187.39926 298.6888492 -171.77622692 285.48669544 -157.97294796 271.72615767 C-155.10974561 268.86960282 -152.25238794 266.0072111 -149.39425659 263.14558411 C-143.81115568 257.55747024 -138.22277563 251.9746654 -132.63252608 246.39370389 C-126.1139934 239.88560879 -119.60074522 233.37223546 -113.08767214 226.85867737 C-101.46482105 215.23532691 -89.83716322 203.61679702 -78.20678711 192.00097656 C-66.93492486 180.74321385 -55.66658321 169.4819427 -44.40209961 158.21679688 C-43.70756883 157.52222614 -43.01303806 156.82765541 -42.29746089 156.11203708 C-41.60409915 155.41863498 -40.91073741 154.72523288 -40.1963647 154.0108186 C-27.34638892 141.1601523 -14.49312412 128.31278016 -1.63832838 115.46693549 C2.89830933 110.93330785 7.4339759 106.39871001 11.96933556 101.86380386 C17.49635705 96.33746582 23.02527414 90.81303205 28.55653509 85.29093714 C31.37598381 82.4760914 34.19465853 79.66048271 37.01117516 76.84270287 C39.59280804 74.25996828 42.17676231 71.67957944 44.76253591 69.10099064 C46.13265333 67.73352211 47.500356 66.36363544 48.86795062 64.99364388 C71.29950512 42.64947081 97.00851005 28.12633533 129.25 27.6875 C158.85595134 27.8520708 184.04708841 39.56320866 204.74169922 60.44311523 C225.44205846 81.91948599 231.72107248 108.88001591 231.30859375 137.8671875 C231.04092257 146.35936103 229.8217057 153.99883451 227 162 C226.6299585 163.06565186 226.6299585 163.06565186 226.25244141 164.15283203 C219.37279584 183.4065485 207.07642422 198.24344543 192.71076965 212.54992676 C191.70198545 213.56173994 190.69363392 214.57398466 189.68567199 215.58661699 C186.94409882 218.3383828 184.19642632 221.08398337 181.44760358 223.8285048 C178.47251137 226.80111375 175.50319338 229.77948169 172.53308105 232.75706482 C166.72461077 238.57824007 160.91072005 244.39397176 155.09472129 250.20762432 C150.36376559 254.93679193 145.63458996 259.66773263 140.90665245 264.3999176 C140.23195048 265.07521477 139.5572485 265.75051193 138.86210101 266.44627264 C137.49112892 267.81845658 136.12015796 269.19064167 134.74918815 270.56282789 C121.91146425 283.4114112 109.06724784 296.25348886 96.22104111 309.09359008 C84.49078394 320.81867992 72.76875704 332.55195845 61.05059461 344.2891348 C48.99421397 356.36492679 36.93224609 368.43511191 24.86427993 380.49932623 C18.09881853 387.26288053 11.3355456 394.02858793 4.57813454 400.80018616 C-1.17487565 406.56515325 -6.93317889 412.32477019 -12.69819834 418.07772887 C-15.63433773 421.00800964 -18.56810259 423.9405607 -21.49527168 426.87980461 C-36.23745956 441.67855978 -50.66137377 455.66248113 -69 466 C-70.051875 466.59425781 -71.10375 467.18851562 -72.1875 467.80078125 C-105.51758485 485.527041 -145.48584773 488.57075058 -181.5078125 477.81103516 C-202.87680374 470.85690223 -221.80926269 459.5389363 -238 444 C-238.89332031 443.16984375 -239.78664062 442.3396875 -240.70703125 441.484375 C-264.28789284 418.92590041 -280.31805279 384.84183336 -281.26368713 352.08572388 C-281.32720492 348.49418611 -281.33050571 344.90446663 -281.3125 341.3125 C-281.31067719 340.55954651 -281.30885437 339.80659302 -281.30697632 339.03082275 C-281.26229953 328.08224385 -280.87899163 317.62567594 -278 307 C-277.74259033 306.02571045 -277.74259033 306.02571045 -277.47998047 305.03173828 C-268.50656121 271.72824394 -248.83283891 248.35445185 -224.8411597 224.49296284 C-221.8126548 221.47754317 -218.79295813 218.45332344 -215.77212524 215.43022156 C-210.55083186 210.20736325 -205.32412088 204.98997924 -200.09357643 199.77638626 C-192.53131355 192.23861555 -184.97745356 184.69246906 -177.42554875 177.14432256 C-165.16969541 164.89501776 -152.90717261 152.65241255 -140.64038086 140.4140625 C-128.73189658 128.53316028 -116.82660082 116.64907776 -104.92553711 104.76074219 C-104.19063916 104.02663241 -103.45574121 103.29252263 -102.69857363 102.5361671 C-99.01143328 98.85294216 -95.32435508 95.16965502 -91.63730776 91.48633695 C-61.10116682 60.98124212 -30.55416936 30.48703668 0 0 Z " fill="#000000" transform="translate(281,14)"/>
</svg>
